# xmcd
#
# Track frame offsets:
# 150
# 4072
# 27014
# 45035
# 58654
# 70099
# 82824
# 131196
#
# Disc length: 2107 seconds
#
# Revision: 0
# Processed by: cddbd v1.5.1PL2 Copyright (c) Steve Scherf et al.
# Submitted via: MacMP3 Pro 5.0 (http://mp3.act2.co.jp/)
#
DISCID=56083908
DTITLE=Í•Í÷ÁÈ‚q -  Ïn«µ«?«¢Ò{«(TM)«?«»
DYEAR=1900
DGENRE=
TTITLE0=1
TTITLE1=2
TTITLE2=3
TTITLE3=4
TTITLE4=5
TTITLE5=6
TTITLE6=7
TTITLE7=8
EXTD=
EXTT0=
EXTT1=
EXTT2=
EXTT3=
EXTT4=
EXTT5=
EXTT6=
EXTT7=
PLAYORDER=
